<?xml version="1.0" ?><svg style="enable-background:new 0 0 48 48;" version="1.1" viewBox="0 0 48 48" xml:space="preserve" xmlns="http://www.w3.org/2000/svg" xmlns:xlink="http://www.w3.org/1999/xlink"><g id="Icons"><radialGradient cx="24" cy="24" gradientUnits="userSpaceOnUse" id="SVGID_1_" r="11.66715"><stop offset="0.09184" style="stop-color:#FAF707"/><stop offset="0.72959" style="stop-color:#FFFC00"/></radialGradient><path d="M30.85185,26.3426c-0.7809-1.5235-0.49-2.2048,1.1101-2.8556   c0.5435-0.222,1.0564-0.4976,1.5847-0.7502c-0.0459-0.1685-0.0919-0.3369-0.1455-0.4976c-0.5359,0.0765-1.0871,0.1377-1.623,0.2296   c-1.2019,0.222-1.6-0.1148-1.5235-1.2938c0.046-0.6661,0.0919-1.3321,0.1225-1.9982c0.1148-2.511-0.7962-4.5397-3.0699-5.6881   c-1.0948-0.5512-2.1972-0.8421-3.3073-0.8574c-1.11,0.0153-2.2124,0.3062-3.3072,0.8574c-2.2738,1.1484-3.1848,3.1771-3.07,5.6882   c0.0307,0.666,0.0766,1.3321,0.1225,1.9981c0.0766,1.179-0.3215,1.5158-1.5235,1.2938c-0.5358-0.0918-1.0871-0.1531-1.6229-0.2296   c-0.0536,0.1607-0.0996,0.3291-0.1455,0.4976c0.5283,0.2526,1.0411,0.5282,1.5847,0.7502c1.6001,0.6508,1.891,1.3321,1.1101,2.8556   c-1.0718,2.067-2.7178,3.4757-5.1063,4.203c1.2019,1.1866,3.6517,0.2373,3.6287,2.7101c2.1283-0.7043,3.8126-0.1838,5.4049,1.0258   c0.9187,0.7044,1.914,1.0872,2.9245,1.0872c1.0106,0,2.0058-0.3828,2.9245-1.0872c1.5924-1.2096,3.2767-1.7301,5.4049-1.0258   c-0.023-2.4728,2.4269-1.5235,3.6288-2.7101C33.56955,29.8183,31.92365,28.4096,30.85185,26.3426z" style="fill:url(#SVGID_1_);"/></g></svg>